<svg xmlns="http://www.w3.org/2000/svg" width="100%" height="100%" viewBox="0 0 1156 216" version="1.1">
	<path d="M 813 25.032 C 805.575 25.517, 798.477 26.170, 797.227 26.482 C 794.999 27.038, 794.322 28.240, 786.511 45.500 C 785.266 48.250, 782.617 53.989, 780.624 58.254 C 778.631 62.519, 777 66.191, 777 66.415 C 777 66.639, 775.454 70.124, 773.564 74.161 C 768.676 84.604, 753 121.211, 753 122.185 C 753 122.633, 762.931 123, 775.070 123 L 797.139 123 803.455 109.709 C 806.928 102.398, 812.347 90.361, 815.497 82.959 C 821.637 68.528, 831.632 47.643, 835.046 42.114 L 837.137 38.727 848.318 39.244 C 864.996 40.015, 872 43.708, 872 51.730 C 872 55.069, 869.298 60.072, 866.037 62.773 C 859.085 68.529, 839.378 74, 825.595 74 L 821.073 74 825.624 86.750 C 833.594 109.077, 835.859 115.368, 837.954 120.986 C 839.079 124.003, 840 126.591, 840 126.736 C 840 126.881, 843.487 127.001, 847.750 127.002 C 863.157 127.007, 897.410 131.278, 923 136.386 C 939.837 139.747, 948.464 142.067, 975.500 150.505 C 983.750 153.080, 991.400 155.428, 992.500 155.723 C 993.600 156.018, 998.324 157.344, 1002.998 158.669 C 1011.331 161.032, 1024.152 163.816, 1036.939 166.038 C 1047.026 167.791, 1073.263 167.483, 1083.116 165.496 C 1092.769 163.549, 1099.802 161.748, 1105.500 159.763 C 1109.721 158.292, 1112.205 154.538, 1117.917 141 C 1119.193 137.975, 1122.461 130.615, 1125.180 124.644 C 1127.898 118.674, 1129.871 113.537, 1129.563 113.230 C 1129.256 112.923, 1125.966 113.390, 1122.252 114.267 C 1104.786 118.396, 1094.635 119.236, 1068.601 118.704 C 1031.939 117.957, 1011.232 114.130, 937.500 94.474 C 920.857 90.038, 891.700 83.794, 881.250 82.428 C 878.362 82.051, 876 81.460, 876 81.114 C 876 80.768, 879.568 79.486, 883.930 78.264 C 900.053 73.745, 913.015 65.811, 916.986 58.028 C 919.642 52.820, 919.680 44.552, 917.066 40.586 C 912.741 34.025, 901.983 29.290, 885 26.472 C 873.482 24.560, 832.690 23.745, 813 25.032 M 46 28.007 C 46 28.560, 41.500 38.299, 36 49.648 C 30.500 60.997, 26 70.442, 26 70.637 C 26 70.832, 72.517 71.105, 129.372 71.245 L 232.743 71.500 227.397 85 C 223.528 94.770, 222.044 99.863, 222.025 103.434 C 222.002 108.036, 222.325 108.681, 226.838 113.031 C 238.118 123.903, 264.564 128.455, 293.564 124.514 C 313.973 121.741, 324.444 118.173, 335.203 110.328 C 346.118 102.369, 353.686 90.364, 363.463 65.500 C 366.059 58.900, 370.394 48.241, 373.098 41.814 C 375.801 35.387, 378.284 29.425, 378.614 28.564 C 379.138 27.197, 377.657 27, 366.857 27.004 L 354.500 27.007 352.575 31.754 C 351.517 34.364, 348.761 40.550, 346.452 45.500 C 344.144 50.450, 340.173 59.770, 337.629 66.212 C 326.233 95.064, 316.250 105.598, 297.068 109.010 C 287.373 110.734, 276.444 108.161, 271.487 102.986 C 268.748 100.127, 268.690 99.856, 269.793 95.077 C 270.421 92.356, 274.100 83.513, 277.968 75.427 C 281.835 67.342, 285 60.574, 285 60.388 C 285 60.202, 286.287 57.226, 287.859 53.775 C 291.582 45.603, 298 29.296, 298 28.007 C 298 27.336, 255.891 27, 172 27 C 88.111 27, 46 27.336, 46 28.007 M 405.010 33.638 C 403.354 37.289, 402 40.417, 402 40.588 C 402 40.759, 399.750 45.669, 397 51.500 C 394.250 57.331, 392 62.277, 392 62.492 C 392 62.706, 390.258 66.621, 388.129 71.191 C 379.957 88.734, 366 120.901, 366 122.194 C 366 122.637, 371.573 123, 378.384 123 L 390.768 123 396.004 110.750 C 406.418 86.388, 421.018 54.988, 421.915 55.022 C 422.545 55.046, 427.677 63.295, 449.500 99.362 L 463.500 122.500 478.750 122.776 C 491.288 123.003, 494 122.803, 494 121.652 C 494 120.051, 503.219 96.857, 507.882 86.725 C 509.597 82.999, 511 79.781, 511 79.574 C 511 79.368, 512.751 75.441, 514.892 70.849 C 522.245 55.075, 528.235 41.489, 531.028 34.250 L 533.825 27 521.163 27.009 L 508.500 27.018 504.545 35.759 C 502.369 40.567, 498.944 48.100, 496.932 52.500 C 494.921 56.900, 492.027 63.313, 490.501 66.750 C 488.975 70.188, 487.451 72.986, 487.113 72.968 C 486.601 72.941, 476.775 56.627, 462.588 32.250 L 459.533 27 433.776 27 L 408.020 27 405.010 33.638 M 565.077 29.250 C 564.597 30.488, 562.853 34.425, 561.201 38 C 544.689 73.742, 524 120.581, 524 122.225 C 524 122.671, 534.432 122.916, 547.182 122.768 L 570.364 122.500 578.011 105 C 582.217 95.375, 587.797 82.775, 590.411 77 C 594.974 66.919, 609.255 33.915, 611.074 29.250 L 611.950 27 588.950 27 C 566.024 27, 565.948 27.007, 565.077 29.250 M 634.322 71.244 C 610.024 95.585, 589.324 116.419, 588.322 117.543 C 583.132 123.364, 582.667 123, 595.284 123 L 606.812 123 621.156 109.043 L 635.500 95.085 660.750 95.043 C 674.638 95.019, 686.034 95.112, 686.076 95.250 C 686.118 95.388, 687.141 101.575, 688.349 109 L 690.547 122.500 715.273 122.767 C 737.320 123.006, 740 122.863, 740 121.445 C 740 119.851, 739.368 115.994, 729.695 58.500 L 724.479 27.500 701.490 27.244 L 678.500 26.988 634.322 71.244 M 131.718 32.092 C 123.983 33.913, 120 37.199, 120 41.760 C 120 45.193, 124.242 47.815, 133.802 50.291 C 138.916 51.616, 143.640 53.248, 144.300 53.917 C 146.170 55.814, 142.401 58, 137.261 58 C 133.899 58, 132.376 57.430, 130.588 55.500 C 128.533 53.283, 127.462 53, 121.135 53 C 114.579 53, 114 53.168, 114 55.077 C 114 59.003, 118.986 62.618, 126.114 63.859 C 142.639 66.737, 158.758 62.796, 160.608 55.426 C 161.935 50.138, 156.816 46.385, 143.758 43.073 C 135.976 41.099, 133.786 38.772, 138.578 37.570 C 142.166 36.669, 146.711 37.761, 148.249 39.893 C 149.293 41.341, 150.700 41.557, 156.750 41.201 C 164.714 40.732, 165.567 39.821, 161.561 36.057 C 157.076 31.844, 141.539 29.779, 131.718 32.092 M 65 32.424 C 65 32.658, 62.544 39.858, 59.542 48.424 L 54.084 64 62.432 64 L 70.780 64 73.095 57.443 C 75.226 51.408, 75.602 50.934, 77.826 51.492 C 80.731 52.222, 81.633 53.094, 85.846 59.250 L 89.096 64 97.548 64 C 102.197 64, 106 63.723, 106 63.384 C 106 62.198, 98.819 52.998, 97.176 52.079 C 95.867 51.346, 96.523 50.897, 100.288 49.949 C 106.104 48.485, 111 44.208, 111 40.592 C 111 37.789, 107.369 33.946, 103.685 32.850 C 101.291 32.137, 65 31.738, 65 32.424 M 78.630 41.250 C 78.299 42.487, 78.021 43.837, 78.014 44.250 C 78.006 44.663, 80.875 45, 84.389 45 C 89.101 45, 91.374 44.517, 93.048 43.162 C 96.645 40.250, 94.696 39, 86.558 39 C 79.807 39, 79.186 39.176, 78.630 41.250 M 675.559 53.250 C 673.865 55.272, 661.839 68.709, 654.761 76.490 L 652.023 79.500 667.652 79.776 C 676.248 79.928, 683.441 79.893, 683.636 79.698 C 683.831 79.503, 682.869 73.078, 681.499 65.421 C 680.129 57.765, 679.007 51.388, 679.004 51.250 C 678.988 50.293, 677.135 51.369, 675.559 53.250 M 780.023 147.377 C 778.269 149.131, 778.853 149.494, 783.729 149.682 C 788.006 149.848, 791.001 148.795, 790.999 147.128 C 790.998 146.065, 781.110 146.290, 780.023 147.377 M 810.833 153.672 C 802.182 155.115, 798.274 169.344, 803.961 178.696 C 805.492 181.212, 806.933 182.065, 811.313 183.046 C 818.636 184.684, 824.486 182.922, 827.720 178.102 C 832.113 171.555, 830.136 158.284, 824.304 155.163 C 822.020 153.941, 814.328 153.089, 810.833 153.672 M 205.455 156.455 C 201.936 159.973, 202.024 166.087, 205.635 168.927 C 207.756 170.596, 209.698 171, 215.600 171 C 221.598 171, 223.102 171.323, 223.880 172.776 C 224.483 173.902, 224.478 175.182, 223.866 176.276 C 223.058 177.718, 221.357 178, 213.450 178 L 204 178 204 180.586 L 204 183.172 215.467 182.836 C 228.930 182.442, 230.239 181.715, 230.353 174.573 C 230.455 168.154, 228.668 166.680, 220.262 166.252 C 210.888 165.775, 209 165.260, 209 163.181 C 209 159.797, 211.134 159, 220.200 159 C 228.920 159, 229 158.977, 229 156.500 L 229 154 218.455 154 C 208.591 154, 207.750 154.159, 205.455 156.455 M 236 168.500 L 236 183 239 183 L 242 183 242 168.500 L 242 154 239 154 L 236 154 236 168.500 M 250.500 155.195 C 247.593 156.844, 247.032 158.028, 247.015 162.559 C 246.991 168.940, 248.627 170.332, 256.629 170.741 C 266.761 171.258, 268 171.658, 268 174.412 C 268 177.527, 266.473 178, 256.418 178 C 248.029 178, 248 178.009, 248 180.588 L 248 183.177 258.898 182.838 C 271.966 182.433, 274 181.298, 274 174.416 C 274 167.602, 271.764 166.219, 260 165.756 C 253.501 165.500, 253.500 165.499, 253.500 162.500 L 253.500 159.500 263.250 159.214 C 272.868 158.931, 273 158.894, 273 156.464 C 273 154.004, 272.985 154, 262.750 154.030 C 257.010 154.047, 251.620 154.560, 250.500 155.195 M 276 156.500 C 276 158.833, 276.333 159, 281 159 L 286 159 286 171 L 286 183 289 183 L 292 183 292 171 L 292 159 296.500 159 C 300.633 159, 301 158.796, 301 156.500 L 301 154 288.500 154 L 276 154 276 156.500 M 308.881 155.503 C 303.522 158.415, 301.302 169.001, 304.464 176.568 C 306.375 181.143, 310.852 183, 319.968 183 C 326.802 183, 327 182.930, 327 180.500 C 327 178.082, 326.779 177.999, 320.250 177.985 C 312.574 177.967, 311.533 177.531, 310.087 173.730 L 309.050 171 316.275 170.885 C 320.249 170.822, 324.288 170.850, 325.250 170.948 C 326.508 171.076, 327 170.405, 327 168.563 C 327 166.013, 326.956 166, 318.500 166 C 310.905 166, 310 165.804, 310 164.155 C 310 160.600, 313.205 159, 320.329 159 C 326.778 159, 327 158.917, 327 156.500 C 327 154.045, 326.861 154.001, 319.250 154.040 C 314.513 154.065, 310.482 154.633, 308.881 155.503 M 333 168.443 L 333 183 335.466 183 C 337.917 183, 337.934 182.934, 338.216 172.250 L 338.500 161.500 342.077 172 C 345.632 182.434, 345.676 182.502, 349.077 182.787 L 352.500 183.073 356 172.287 L 359.500 161.500 359.784 172.250 C 360.066 182.934, 360.083 183, 362.534 183 L 365 183 365 168.443 L 365 153.885 360.754 154.193 L 356.508 154.500 353.250 164 C 351.459 169.225, 349.723 174.175, 349.393 175 C 349.050 175.860, 347.239 171.809, 345.147 165.500 L 341.500 154.500 337.250 154.193 L 333 153.885 333 168.443 M 375.511 165.250 C 372.877 171.438, 370.103 177.963, 369.347 179.750 L 367.973 183 371.038 183 C 373.595 183, 374.344 182.420, 375.564 179.500 C 377.021 176.015, 377.055 176, 383.449 176 L 389.871 176 391.136 179.500 C 392.236 182.541, 392.836 183, 395.714 183 L 399.027 183 397.385 179.250 C 396.482 177.188, 394.515 172.575, 393.015 169 C 386.220 152.809, 386.975 154, 383.499 154 C 380.376 154, 380.190 154.261, 375.511 165.250 M 402.189 156.039 C 400.597 157.522, 400 159.243, 400 162.348 C 400 169.176, 401.522 170.389, 410.652 170.834 C 418.887 171.235, 421 172.089, 421 175.015 C 421 177.497, 419.047 178, 409.418 178 C 401.029 178, 401 178.009, 401 180.588 L 401 183.177 412.090 182.838 C 422.332 182.526, 423.327 182.319, 425.090 180.139 C 427.432 177.245, 427.622 170.765, 425.430 168.573 C 423.456 166.599, 421.151 166.077, 413 165.756 C 406.501 165.500, 406.500 165.499, 406.500 162.500 L 406.500 159.500 416.250 159.214 C 425.868 158.931, 426 158.894, 426 156.464 L 426 154 415.189 154 C 405.691 154, 404.111 154.248, 402.189 156.039 M 445 168.500 L 445 183 454.250 182.985 C 459.586 182.977, 464.535 182.447, 465.945 181.733 C 474.436 177.436, 474.494 159.893, 466.033 155.517 C 464.045 154.489, 460.183 154, 454.050 154 L 445 154 445 168.500 M 479.490 157.310 C 473.658 163.142, 473.695 174.546, 479.563 180.060 C 481.808 182.169, 483.302 182.548, 490.580 182.853 L 499 183.205 499 180.603 C 499 178.053, 498.862 178, 492.155 178 C 484.984 178, 482 176.434, 482 172.671 C 482 171.241, 483.224 171, 490.500 171 C 498.900 171, 499 170.971, 499 168.500 C 499 166.029, 498.900 166, 490.500 166 C 481.389 166, 480.594 165.453, 483.557 161.223 C 484.911 159.289, 486.015 159, 492.057 159 C 498.796 159, 499 158.927, 499 156.500 C 499 154.039, 498.873 154, 490.900 154 C 483.065 154, 482.692 154.108, 479.490 157.310 M 524.311 155.952 C 516.908 160.466, 517.283 177.509, 524.872 181.434 C 526.836 182.450, 530.553 183, 535.450 183 C 542.837 183, 543 182.946, 543 180.500 C 543 178.074, 542.795 178, 536.071 178 C 527.115 178, 526 176.957, 526 168.584 C 526 160.267, 527.365 159, 536.329 159 C 542.778 159, 543 158.917, 543 156.500 C 543 154.048, 542.851 154, 535.250 154.004 C 529.339 154.007, 526.743 154.469, 524.311 155.952 M 547.166 165.975 C 547.592 181.258, 548.337 182.276, 559.509 182.840 L 567 183.219 567 180.609 C 567 178.097, 566.785 178, 561.200 178 C 558.010 178, 554.860 177.460, 554.200 176.800 C 553.415 176.015, 553 171.867, 553 164.800 L 553 154 549.916 154 L 546.833 154 547.166 165.975 M 571 168.500 L 571 183 574 183 L 577 183 577 168.500 L 577 154 574 154 L 571 154 571 168.500 M 583 168.445 L 583 183 585.966 183 L 588.932 183 589.216 172.250 L 589.500 161.500 593.071 172 L 596.642 182.500 600.035 182.500 L 603.428 182.500 606.706 172.091 C 608.509 166.367, 610.261 161.417, 610.599 161.091 C 610.938 160.766, 611.047 165.563, 610.841 171.750 L 610.468 183 613.234 183 L 616 183 616 168.500 L 616 154 611.627 154 L 607.253 154 603.877 164.495 C 602.020 170.267, 600.205 174.992, 599.845 174.995 C 599.484 174.998, 597.684 170.387, 595.845 164.750 L 592.500 154.500 587.750 154.195 L 583 153.890 583 168.445 M 630.070 156.250 C 629.586 157.488, 626.897 163.827, 624.095 170.339 C 621.293 176.850, 619 182.391, 619 182.652 C 619 182.913, 620.448 182.986, 622.218 182.813 C 624.883 182.554, 625.596 181.941, 626.363 179.250 L 627.289 176 634.067 176 L 640.845 176 642 179.500 C 643.012 182.566, 643.567 183, 646.479 183 L 649.802 183 644.827 171.250 C 642.091 164.787, 639.391 158.262, 638.828 156.750 C 637.985 154.484, 637.201 154, 634.377 154 C 631.751 154, 630.745 154.526, 630.070 156.250 M 645 156.500 C 645 158.833, 645.333 159, 650 159 L 655 159 655 171 L 655 183 658 183 L 661 183 661 171 L 661 159 666 159 C 670.667 159, 671 158.833, 671 156.500 L 671 154 658 154 L 645 154 645 156.500 M 674 168.500 L 674 183 677 183 L 680 183 680 168.500 L 680 154 677 154 L 674 154 674 168.500 M 686 156.500 C 686 158.959, 686.131 159, 694.035 159 C 703.582 159, 703.609 158.699, 693.054 170 C 687.944 175.471, 686.043 178.244, 686.025 180.250 L 686 183 698.500 183 L 711 183 711 180.539 C 711 178.141, 710.784 178.070, 702.531 177.789 L 694.062 177.500 697.781 173.452 C 708.856 161.395, 711 158.628, 711 156.392 L 711 154 698.500 154 L 686 154 686 156.500 M 724.034 156.750 C 722.501 160.025, 717.604 171.597, 714.935 178.250 L 713.029 183 716.308 183 C 719.144 183, 719.716 182.561, 720.543 179.750 C 721.486 176.548, 721.598 176.496, 728.169 176.206 L 734.839 175.912 736.120 179.456 C 737.237 182.543, 737.828 183, 740.714 183 L 744.027 183 742.653 179.750 C 731.165 152.577, 731.946 154, 728.510 154 C 726.010 154, 725.043 154.594, 724.034 156.750 M 750.763 155.565 C 746.865 157.680, 745 161.964, 745 168.802 C 745 176.382, 747.852 181.072, 753.284 182.426 C 755.769 183.046, 757 183.921, 757 185.069 C 757 186.014, 757.704 187.056, 758.563 187.386 C 761.236 188.412, 759.013 190.162, 755.905 189.479 C 752.302 188.688, 751.918 190.690, 755.500 191.589 C 759.684 192.639, 763 191.295, 763 188.548 C 763 187.013, 762.272 185.904, 761 185.500 C 757.334 184.337, 758.938 183, 764 183 C 768.667 183, 769 182.833, 769 180.500 C 769 178.087, 768.771 178, 762.434 178 C 758.823 178, 755.017 177.545, 753.977 176.988 C 750.415 175.081, 750.167 163.975, 753.611 160.532 C 754.692 159.451, 757.181 159, 762.071 159 C 768.795 159, 769 158.926, 769 156.500 C 769 154.045, 768.861 154.001, 761.250 154.040 C 756.360 154.065, 752.490 154.628, 750.763 155.565 M 781.160 155.750 C 779.867 158.236, 770 181.880, 770 182.492 C 770 182.771, 771.321 183, 772.935 183 C 775.382 183, 776.081 182.418, 777.136 179.500 C 778.401 176.003, 778.407 176, 784.717 176 C 790.950 176, 791.054 176.046, 792.701 179.500 C 794.122 182.479, 794.873 183, 797.744 183 C 799.600 183, 800.926 182.662, 800.692 182.250 C 800.457 181.838, 799.569 179.925, 798.719 178 C 797.868 176.075, 795.333 170.337, 793.086 165.249 C 790.839 160.160, 789 155.548, 789 154.999 C 789 153.198, 782.146 153.854, 781.160 155.750 M 810.455 160.455 C 808.434 162.475, 808 163.897, 808 168.500 C 808 173.103, 808.434 174.525, 810.455 176.545 C 813.033 179.124, 816.833 179.695, 820.030 177.984 C 822.565 176.627, 824.427 170.089, 823.574 165.541 C 822.196 158.196, 815.363 155.546, 810.455 160.455 M 451 168.500 L 451 178 456.500 178 C 464.079 178, 466 176.010, 466 168.155 C 466 160.553, 464.417 159, 456.671 159 L 451 159 451 168.500 M 381.084 164.544 C 379.938 167.135, 379 169.647, 379 170.127 C 379 170.607, 380.982 171, 383.404 171 L 387.808 171 385.816 165.750 C 384.720 162.863, 383.676 160.350, 383.495 160.167 C 383.315 159.984, 382.230 161.953, 381.084 164.544 M 631.735 164.884 C 630.781 167.571, 630 170.046, 630 170.384 C 630 170.723, 631.800 171, 634 171 C 636.200 171, 638 170.723, 638 170.384 C 638 169.079, 634.503 160, 634 160 C 633.708 160, 632.689 162.198, 631.735 164.884 M 727.376 161.607 C 727.007 162.648, 726.096 165.017, 725.352 166.872 C 724.609 168.727, 724 170.414, 724 170.622 C 724 170.830, 726.018 171, 728.485 171 L 732.971 171 730.902 165.750 C 728.403 159.409, 728.228 159.204, 727.376 161.607 M 782.693 164.750 C 781.756 167.363, 780.992 169.838, 780.995 170.250 C 780.998 170.662, 782.830 171, 785.067 171 C 788.822 171, 789.082 170.827, 788.448 168.750 C 787.408 165.345, 785.148 160, 784.749 160 C 784.554 160, 783.629 162.137, 782.693 164.750" stroke="none" fill="#25A6D9" fill-rule="evenodd"/>
</svg>